# xmcd
# 
# Track frame offsets:
#     150
#     22301
#     38114
#     56804
#     78820
#     101741
#     124893
#     145035
#     166629
#     181624
#     196496
#     216666
#     235642
#     253055
#     272875
#     296462
#     321986
# 
# Disc length: 4622
# 
# Revision: 1
# Processed by: cddbd v1.5.2PL0 Copyright (c) Steve Scherf et al.
# Submitted via: fre:ac v1.0.17
# 
DISCID=fa120c11
DTITLE=Robert Harris - Pompeii CD6
DYEAR=2004
DGENRE=Audiobook
TTITLE0=79 Nocte Concubia
TTITLE1=80 Nocte Concubia
TTITLE2=81 Nocte Concubia
TTITLE3=82 Hora Prima
TTITLE4=83 Hora Prima
TTITLE5=84 Hora Prima
TTITLE6=85 Hora Prima
TTITLE7=86 Hora Prima
TTITLE8=87 Hora Prima
TTITLE9=88 Hora Prima
TTITLE10=89 Hora Quarta
TTITLE11=90 Hora Quarta
TTITLE12=91 Hora Quarta
TTITLE13=92 Hora Quarta
TTITLE14=93 Hora Quarta
TTITLE15=94 Hora Quarta
TTITLE16=95 Hora Quarta
EXTD=
EXTT0=
EXTT1=
EXTT2=
EXTT3=
EXTT4=
EXTT5=
EXTT6=
EXTT7=
EXTT8=
EXTT9=
EXTT10=
EXTT11=
EXTT12=
EXTT13=
EXTT14=
EXTT15=
EXTT16=
PLAYORDER=
